<mxfile host="app.diagrams.net" agent="Mozilla/5.0 (Windows NT 10.0; Win64; x64) AppleWebKit/537.36 (KHTML, like Gecko) Chrome/133.0.0.0 Safari/537.36" version="26.1.0">
  <diagram name="1 oldal" id="QAot4Q26U97plfDjRMI-">
    <mxGraphModel dx="1195" dy="1784" grid="1" gridSize="10" guides="1" tooltips="1" connect="1" arrows="1" fold="1" page="1" pageScale="1" pageWidth="827" pageHeight="1169" math="0" shadow="0">
      <root>
        <mxCell id="0" />
        <mxCell id="1" parent="0" />
        <mxCell id="tfPyZfdhCF0ysh8LBvV3-1" value="&lt;b&gt;&lt;font style=&quot;font-size: 12px;&quot;&gt;Termék&lt;/font&gt;&lt;/b&gt;" style="rounded=0;whiteSpace=wrap;html=1;strokeWidth=2;" vertex="1" parent="1">
          <mxGeometry x="260" y="-470" width="120" height="60" as="geometry" />
        </mxCell>
        <mxCell id="tfPyZfdhCF0ysh8LBvV3-2" value="&lt;b&gt;Gyártó&lt;/b&gt;" style="rounded=0;whiteSpace=wrap;html=1;strokeWidth=2;" vertex="1" parent="1">
          <mxGeometry x="700" y="-470" width="120" height="60" as="geometry" />
        </mxCell>
        <mxCell id="tfPyZfdhCF0ysh8LBvV3-3" value="T-Gy" style="rhombus;whiteSpace=wrap;html=1;" vertex="1" parent="1">
          <mxGeometry x="500" y="-480" width="80" height="80" as="geometry" />
        </mxCell>
        <mxCell id="tfPyZfdhCF0ysh8LBvV3-12" style="rounded=0;orthogonalLoop=1;jettySize=auto;html=1;strokeColor=default;endArrow=none;startFill=0;" edge="1" parent="1" target="tfPyZfdhCF0ysh8LBvV3-18">
          <mxGeometry relative="1" as="geometry">
            <mxPoint x="320" y="-360" as="targetPoint" />
            <mxPoint x="320" y="-410" as="sourcePoint" />
          </mxGeometry>
        </mxCell>
        <mxCell id="tfPyZfdhCF0ysh8LBvV3-13" value="" style="endArrow=none;html=1;rounded=0;" edge="1" parent="1" source="tfPyZfdhCF0ysh8LBvV3-19">
          <mxGeometry width="50" height="50" relative="1" as="geometry">
            <mxPoint x="220" y="-360" as="sourcePoint" />
            <mxPoint x="320" y="-410" as="targetPoint" />
          </mxGeometry>
        </mxCell>
        <mxCell id="tfPyZfdhCF0ysh8LBvV3-14" value="" style="endArrow=none;html=1;rounded=0;" edge="1" parent="1" source="tfPyZfdhCF0ysh8LBvV3-17">
          <mxGeometry width="50" height="50" relative="1" as="geometry">
            <mxPoint x="380" y="-360" as="sourcePoint" />
            <mxPoint x="319.6600000000001" y="-410" as="targetPoint" />
          </mxGeometry>
        </mxCell>
        <mxCell id="tfPyZfdhCF0ysh8LBvV3-20" value="" style="group" vertex="1" connectable="0" parent="1">
          <mxGeometry x="170" y="-360" width="300" height="30" as="geometry" />
        </mxCell>
        <mxCell id="tfPyZfdhCF0ysh8LBvV3-17" value="ear" style="ellipse;whiteSpace=wrap;html=1;container=1;" vertex="1" parent="tfPyZfdhCF0ysh8LBvV3-20">
          <mxGeometry x="230" width="70" height="30" as="geometry" />
        </mxCell>
        <mxCell id="tfPyZfdhCF0ysh8LBvV3-18" value="név" style="ellipse;whiteSpace=wrap;html=1;container=1;" vertex="1" parent="tfPyZfdhCF0ysh8LBvV3-20">
          <mxGeometry x="115" width="70" height="30" as="geometry" />
        </mxCell>
        <mxCell id="tfPyZfdhCF0ysh8LBvV3-19" value="Tkód" style="ellipse;whiteSpace=wrap;html=1;container=1;" vertex="1" parent="tfPyZfdhCF0ysh8LBvV3-20">
          <mxGeometry width="70" height="30" as="geometry" />
        </mxCell>
        <mxCell id="tfPyZfdhCF0ysh8LBvV3-21" value="" style="group" vertex="1" connectable="0" parent="1">
          <mxGeometry x="554" y="-360" width="300" height="30" as="geometry" />
        </mxCell>
        <mxCell id="tfPyZfdhCF0ysh8LBvV3-22" value="telephely" style="ellipse;whiteSpace=wrap;html=1;container=1;" vertex="1" parent="tfPyZfdhCF0ysh8LBvV3-21">
          <mxGeometry x="230" width="70" height="30" as="geometry" />
        </mxCell>
        <mxCell id="tfPyZfdhCF0ysh8LBvV3-23" value="név" style="ellipse;whiteSpace=wrap;html=1;container=1;" vertex="1" parent="tfPyZfdhCF0ysh8LBvV3-21">
          <mxGeometry x="115" width="70" height="30" as="geometry" />
        </mxCell>
        <mxCell id="tfPyZfdhCF0ysh8LBvV3-24" value="adószám" style="ellipse;whiteSpace=wrap;html=1;container=1;" vertex="1" parent="tfPyZfdhCF0ysh8LBvV3-21">
          <mxGeometry width="70" height="30" as="geometry" />
        </mxCell>
        <mxCell id="tfPyZfdhCF0ysh8LBvV3-26" value="" style="endArrow=none;html=1;rounded=0;" edge="1" parent="1" source="tfPyZfdhCF0ysh8LBvV3-24">
          <mxGeometry width="50" height="50" relative="1" as="geometry">
            <mxPoint x="660" y="-360" as="sourcePoint" />
            <mxPoint x="760" y="-410" as="targetPoint" />
          </mxGeometry>
        </mxCell>
        <mxCell id="tfPyZfdhCF0ysh8LBvV3-27" value="" style="endArrow=none;html=1;rounded=0;" edge="1" parent="1" source="tfPyZfdhCF0ysh8LBvV3-22">
          <mxGeometry width="50" height="50" relative="1" as="geometry">
            <mxPoint x="860" y="-360" as="sourcePoint" />
            <mxPoint x="759.6600000000001" y="-410" as="targetPoint" />
          </mxGeometry>
        </mxCell>
        <mxCell id="tfPyZfdhCF0ysh8LBvV3-28" value="" style="endArrow=doubleBlock;html=1;rounded=0;endFill=1;exitX=0;exitY=0.5;exitDx=0;exitDy=0;entryX=1;entryY=0.5;entryDx=0;entryDy=0;" edge="1" parent="1" source="tfPyZfdhCF0ysh8LBvV3-3" target="tfPyZfdhCF0ysh8LBvV3-1">
          <mxGeometry width="50" height="50" relative="1" as="geometry">
            <mxPoint x="380" y="-440" as="sourcePoint" />
            <mxPoint x="440" y="-520" as="targetPoint" />
          </mxGeometry>
        </mxCell>
        <mxCell id="tfPyZfdhCF0ysh8LBvV3-29" value="" style="endArrow=doubleBlock;html=1;rounded=0;entryX=0;entryY=0.5;entryDx=0;entryDy=0;startArrow=none;startFill=0;endFill=1;" edge="1" parent="1">
          <mxGeometry width="50" height="50" relative="1" as="geometry">
            <mxPoint x="580" y="-440.34" as="sourcePoint" />
            <mxPoint x="700" y="-440.34" as="targetPoint" />
          </mxGeometry>
        </mxCell>
        <mxCell id="tfPyZfdhCF0ysh8LBvV3-30" value="" style="rounded=0;orthogonalLoop=1;jettySize=auto;html=1;endArrow=none;startFill=0;entryX=0.5;entryY=1;entryDx=0;entryDy=0;" edge="1" parent="1" source="tfPyZfdhCF0ysh8LBvV3-23" target="tfPyZfdhCF0ysh8LBvV3-2">
          <mxGeometry relative="1" as="geometry" />
        </mxCell>
        <mxCell id="tfPyZfdhCF0ysh8LBvV3-32" value="" style="endArrow=none;html=1;rounded=0;" edge="1" parent="1" source="tfPyZfdhCF0ysh8LBvV3-33">
          <mxGeometry width="50" height="50" relative="1" as="geometry">
            <mxPoint x="970" y="-360" as="sourcePoint" />
            <mxPoint x="760.0000000000001" y="-410" as="targetPoint" />
          </mxGeometry>
        </mxCell>
        <mxCell id="tfPyZfdhCF0ysh8LBvV3-34" style="rounded=0;orthogonalLoop=1;jettySize=auto;html=1;endArrow=none;startFill=0;exitX=0.502;exitY=1.014;exitDx=0;exitDy=0;exitPerimeter=0;" edge="1" parent="1" source="tfPyZfdhCF0ysh8LBvV3-33" target="tfPyZfdhCF0ysh8LBvV3-40">
          <mxGeometry relative="1" as="geometry">
            <mxPoint x="952" y="-250" as="targetPoint" />
          </mxGeometry>
        </mxCell>
        <mxCell id="tfPyZfdhCF0ysh8LBvV3-35" style="rounded=0;orthogonalLoop=1;jettySize=auto;html=1;endArrow=none;startFill=0;exitX=0.5;exitY=1;exitDx=0;exitDy=0;" edge="1" parent="1" source="tfPyZfdhCF0ysh8LBvV3-33" target="tfPyZfdhCF0ysh8LBvV3-37">
          <mxGeometry relative="1" as="geometry">
            <mxPoint x="854" y="-240" as="targetPoint" />
            <mxPoint x="914.251262658471" y="-334.3933982822016" as="sourcePoint" />
          </mxGeometry>
        </mxCell>
        <mxCell id="tfPyZfdhCF0ysh8LBvV3-36" style="rounded=0;orthogonalLoop=1;jettySize=auto;html=1;endArrow=none;startFill=0;exitX=0.5;exitY=1;exitDx=0;exitDy=0;" edge="1" parent="1" source="tfPyZfdhCF0ysh8LBvV3-33" target="tfPyZfdhCF0ysh8LBvV3-41">
          <mxGeometry relative="1" as="geometry">
            <mxPoint x="1022.7292296776566" y="-249.04791636902746" as="targetPoint" />
            <mxPoint x="952" y="-330" as="sourcePoint" />
          </mxGeometry>
        </mxCell>
        <mxCell id="tfPyZfdhCF0ysh8LBvV3-33" value="postai cím" style="ellipse;whiteSpace=wrap;html=1;container=1;" vertex="1" parent="1">
          <mxGeometry x="927" y="-360" width="70" height="30" as="geometry" />
        </mxCell>
        <mxCell id="tfPyZfdhCF0ysh8LBvV3-37" value="irányítószám" style="ellipse;whiteSpace=wrap;html=1;container=1;" vertex="1" parent="1">
          <mxGeometry x="810" y="-250" width="90" height="30" as="geometry" />
        </mxCell>
        <mxCell id="tfPyZfdhCF0ysh8LBvV3-40" value="város" style="ellipse;whiteSpace=wrap;html=1;container=1;" vertex="1" parent="1">
          <mxGeometry x="917" y="-250" width="90" height="30" as="geometry" />
        </mxCell>
        <mxCell id="tfPyZfdhCF0ysh8LBvV3-41" value="utca" style="ellipse;whiteSpace=wrap;html=1;container=1;" vertex="1" parent="1">
          <mxGeometry x="1020" y="-250" width="90" height="30" as="geometry" />
        </mxCell>
        <mxCell id="tfPyZfdhCF0ysh8LBvV3-44" value="" style="endArrow=none;html=1;rounded=0;" edge="1" parent="1">
          <mxGeometry width="50" height="50" relative="1" as="geometry">
            <mxPoint x="178.18568089304904" y="-391.97760533859537" as="sourcePoint" />
            <mxPoint x="320" y="-410" as="targetPoint" />
          </mxGeometry>
        </mxCell>
        <mxCell id="tfPyZfdhCF0ysh8LBvV3-47" value="" style="ellipse;whiteSpace=wrap;html=1;" vertex="1" parent="1">
          <mxGeometry x="67.5" y="-430" width="120" height="80" as="geometry" />
        </mxCell>
        <mxCell id="tfPyZfdhCF0ysh8LBvV3-48" value="egys. darabsz." style="ellipse;whiteSpace=wrap;html=1;" vertex="1" parent="1">
          <mxGeometry x="87.5" y="-410" width="80" height="40" as="geometry" />
        </mxCell>
        <mxCell id="tfPyZfdhCF0ysh8LBvV3-49" value="" style="endArrow=none;html=1;rounded=0;startArrow=doubleBlock;startFill=1;" edge="1" parent="1" target="tfPyZfdhCF0ysh8LBvV3-52">
          <mxGeometry width="50" height="50" relative="1" as="geometry">
            <mxPoint x="320" y="-470" as="sourcePoint" />
            <mxPoint x="320" y="-560" as="targetPoint" />
          </mxGeometry>
        </mxCell>
        <mxCell id="tfPyZfdhCF0ysh8LBvV3-50" value="&lt;b&gt;Alkatrész&lt;/b&gt;" style="rounded=0;whiteSpace=wrap;html=1;strokeWidth=2;" vertex="1" parent="1">
          <mxGeometry x="260" y="-780" width="120" height="60" as="geometry" />
        </mxCell>
        <mxCell id="tfPyZfdhCF0ysh8LBvV3-51" value="" style="endArrow=doubleBlock;html=1;rounded=0;endFill=1;" edge="1" parent="1" source="tfPyZfdhCF0ysh8LBvV3-52">
          <mxGeometry width="50" height="50" relative="1" as="geometry">
            <mxPoint x="320" y="-640" as="sourcePoint" />
            <mxPoint x="319.64" y="-720" as="targetPoint" />
          </mxGeometry>
        </mxCell>
        <mxCell id="tfPyZfdhCF0ysh8LBvV3-52" value="A-T" style="rhombus;whiteSpace=wrap;html=1;" vertex="1" parent="1">
          <mxGeometry x="280" y="-640" width="80" height="80" as="geometry" />
        </mxCell>
        <mxCell id="tfPyZfdhCF0ysh8LBvV3-53" style="rounded=0;orthogonalLoop=1;jettySize=auto;html=1;strokeColor=default;endArrow=none;startFill=0;" edge="1" parent="1" source="tfPyZfdhCF0ysh8LBvV3-61">
          <mxGeometry relative="1" as="geometry">
            <mxPoint x="319.8" y="-780" as="targetPoint" />
            <mxPoint x="319.8" y="-830" as="sourcePoint" />
          </mxGeometry>
        </mxCell>
        <mxCell id="tfPyZfdhCF0ysh8LBvV3-54" value="" style="endArrow=none;html=1;rounded=0;" edge="1" parent="1" target="tfPyZfdhCF0ysh8LBvV3-62">
          <mxGeometry width="50" height="50" relative="1" as="geometry">
            <mxPoint x="320" y="-780" as="sourcePoint" />
            <mxPoint x="226" y="-833" as="targetPoint" />
          </mxGeometry>
        </mxCell>
        <mxCell id="tfPyZfdhCF0ysh8LBvV3-59" value="" style="group" vertex="1" connectable="0" parent="1">
          <mxGeometry x="220" y="-860" width="300" height="30" as="geometry" />
        </mxCell>
        <mxCell id="tfPyZfdhCF0ysh8LBvV3-61" value="név" style="ellipse;whiteSpace=wrap;html=1;container=1;" vertex="1" parent="tfPyZfdhCF0ysh8LBvV3-59">
          <mxGeometry x="115" width="70" height="30" as="geometry" />
        </mxCell>
        <mxCell id="tfPyZfdhCF0ysh8LBvV3-62" value="Akód" style="ellipse;whiteSpace=wrap;html=1;container=1;" vertex="1" parent="tfPyZfdhCF0ysh8LBvV3-59">
          <mxGeometry width="70" height="30" as="geometry" />
        </mxCell>
      </root>
    </mxGraphModel>
  </diagram>
</mxfile>
